
<svg xmlns="http://www.w3.org/2000/svg" version="1.1" xmlns:xlink="http://www.w3.org/1999/xlink" preserveAspectRatio="none" x="0px" y="0px" width="650px" height="560px" viewBox="0 0 650 560">
<defs>
<filter id="Filter_1" x="-20%" y="-20%" width="140%" height="140%" color-interpolation-filters="sRGB">
<feColorMatrix in="SourceGraphic" type="matrix" values="1 0 0 0 0 0 1 0 0 0 0 0 1 0 0 0 0 0 0.49 0" result="result1"/>
</filter>

<filter id="Filter_2" x="-20%" y="-20%" width="140%" height="140%" color-interpolation-filters="sRGB">
<feColorMatrix in="SourceGraphic" type="matrix" values="1 0 0 0 0 0 1 0 0 0 0 0 1 0 0 0 0 0 0.01 0" result="result1"/>
</filter>

<g id="Mask_VetorBlogueiro_ai_0_Layer_1__Clip_Group__2_0_2_MASK_0_FILL">
<path fill="#FFFFFF" stroke="none" d="
M 3.05 94.65
L 3.05 818.7 1087.05 818.7 1087.05 94.65 3.05 94.65 Z"/>
</g>

<g id="Mask_VetorBlogueiro_ai_0_Layer_1__Clip_Group__0_2_MASK_0_FILL">
<path fill="#FFFFFF" stroke="none" d="
M 1087.05 0
L 3.05 0 3.05 6007.3 1087.05 6007.3 1087.05 0 Z"/>
</g>

<g id="Mask_VetorBlogueiro_ai_0_Layer_1__Clip_Group__0_0_2_MASK_0_FILL">
<path fill="#FFFFFF" stroke="none" d="
M 1087.05 730.4
L 1087.05 6.35 3.05 6.35 3.05 730.4 1087.05 730.4 Z"/>
</g>

<g id="Mask_VetorBlogueiro_ai_0_Layer_1__Clip_Group__1_0_2_MASK_0_FILL">
<path fill="#FFFFFF" stroke="none" d="
M 1087.05 730.4
L 1087.05 6.35 3.05 6.35 3.05 730.4 1087.05 730.4 Z"/>
</g>

<g id="VetorBlogueiro_ai_0_Layer_1__Clip_Group__1_0_Layer2_0_FILL">
<path fill="#887ADA" stroke="none" d="
M 1090.1 736.8
L 1090.1 0 0 0 0 736.8 1090.1 736.8 Z"/>
</g>

<g id="Mask_VetorBlogueiro_ai_0_Layer_1__Clip_Group__1_0_0_2_MASK_0_FILL">
<path fill="#FFFFFF" stroke="none" d="
M 202.2 79.25
L 202.2 0 0 0 0 79.25 202.2 79.25 Z"/>
</g>

<g id="VetorBlogueiro_ai_0_Layer_1__Clip_Group__1_0_0_Layer2_0_FILL">
<path fill="#695AC0" stroke="none" d="
M 181.1 0
L 167.2 0 167.2 58.6 181.1 58.6 181.1 0 Z"/>
</g>

<g id="VetorBlogueiro_ai_0_Layer_1__Clip_Group__1_0_0_Layer2_1_FILL">
<path fill="#695AC0" stroke="none" d="
M 102.45 58.6
L 102.45 0 74.55 0 74.55 58.6 102.45 58.6 Z"/>
</g>

<g id="VetorBlogueiro_ai_0_Layer_1__Clip_Group__1_0_0_Layer2_2_FILL">
<path fill="#7E70CD" stroke="none" d="
M 115.15 9.75
L 102.45 9.75 102.45 58.6 115.15 58.6 115.15 9.75 Z"/>
</g>

<g id="VetorBlogueiro_ai_0_Layer_1__Clip_Group__1_0_0_Layer2_3_FILL">
<path fill="#695AC0" stroke="none" d="
M 115.15 3
L 115.15 58.6 123.45 58.6 123.45 3 115.15 3 Z"/>
</g>

<g id="VetorBlogueiro_ai_0_Layer_1__Clip_Group__1_0_0_Layer2_4_FILL">
<path fill="#7D6FCF" stroke="none" d="
M 136.5 0
L 123.45 0 123.45 58.6 136.5 58.6 136.5 0 Z"/>
</g>

<g id="VetorBlogueiro_ai_0_Layer_1__Clip_Group__1_0_0_Layer2_5_FILL">
<path fill="#7D6FCF" stroke="none" d="
M 154.7 0
L 136.5 0 136.5 58.6 154.7 58.6 154.7 0 Z"/>
</g>

<g id="VetorBlogueiro_ai_0_Layer_1__Clip_Group__1_0_0_Layer2_6_FILL">
<path fill="#695AC0" stroke="none" d="
M 19.15 34.85
Q 15.05 38.95 15.05 44.7 15.05 50.45 19.15 54.5 23.25 58.6 29 58.6 34.75 58.6 38.85 54.5 42.9 50.45 42.9 44.7 42.9 38.95 38.85 34.85 34.8 30.8 29 30.8 23.2 30.8 19.15 34.85 Z"/>
</g>

<g id="VetorBlogueiro_ai_0_Layer_1__Clip_Group__1_0_0_Layer2_7_FILL">
<path fill="#7D6FCF" stroke="none" d="
M 52.75 34.85
Q 48.7 30.8 42.9 30.8 37.15 30.8 33.05 34.85 29 38.95 29 44.7 29 50.45 33.05 54.5 37.15 58.6 42.9 58.6 48.65 58.6 52.75 54.5 56.85 50.45 56.85 44.7 56.85 38.95 52.75 34.85 Z"/>
</g>

<g id="VetorBlogueiro_ai_0_Layer_1__Clip_Group__1_0_0_Layer2_8_FILL">
<path fill="#695AC0" stroke="none" d="
M 55.35 38.4
Q 53.9 35.55 51.35 33.65 54.2 37.4 54.2 42 54.2 47.75 50.1 51.85 46.05 55.9 40.25 55.9 35.55 55.9 31.85 53.1 33.8 55.65 36.65 57.1 39.6 58.6 42.9 58.6 48.65 58.6 52.75 54.5 56.85 50.45 56.85 44.7 56.85 41.35 55.35 38.4 Z"/>
</g>

<g id="VetorBlogueiro_ai_0_Layer_1__Clip_Group__1_0_0_Layer2_9_FILL">
<path fill="#695AC0" stroke="none" d="
M 44.2 23.1
Q 43.8 22.65 43.15 22.65 42.55 22.65 42.15 23.1 41.7 23.5 41.7 24.1
L 41.7 32.8
Q 41.7 33.45 42.15 33.85 42.55 34.3 43.15 34.3 43.8 34.3 44.2 33.85 44.65 33.45 44.65 32.8
L 44.65 24.1
Q 44.65 23.5 44.2 23.1 Z"/>
</g>

<g id="VetorBlogueiro_ai_0_Layer_1__Clip_Group__1_0_0_Layer2_10_FILL">
<path fill="#695AC0" stroke="none" d="
M 63.5 26.8
Q 62.4 25.7 60.65 24.6 57.1 22.4 53.7 22.4 50.3 22.4 46.75 24.6
L 43.85 26.8 46.75 29.05
Q 50.3 31.25 53.7 31.25 57.1 31.25 60.65 29.05 62.4 27.9 63.5 26.8 Z"/>
</g>

<g id="VetorBlogueiro_ai_0_Layer_1__Clip_Group__1_0_0_Layer2_11_FILL">
<path fill="#7D6FCF" stroke="none" d="
M 102.45 0
L 95 0 95 58.6 102.45 58.6 102.45 0 Z"/>
</g>

<g id="VetorBlogueiro_ai_0_Layer_1__Clip_Group__1_0_0_Layer2_12_FILL">
<path fill="#695AC0" stroke="none" d="
M 136.5 0
L 132.95 0 132.95 58.6 136.5 58.6 136.5 0 Z"/>
</g>

<g id="VetorBlogueiro_ai_0_Layer_1__Clip_Group__1_0_0_Layer2_13_FILL">
<path fill="#7E70CD" stroke="none" d="
M 181.1 0
L 176.5 0 176.5 58.6 181.1 58.6 181.1 0 Z"/>
</g>

<g id="VetorBlogueiro_ai_0_Layer_1__Clip_Group__1_0_0_Layer2_14_FILL">
<path fill="#695AC0" stroke="none" d="
M 199.15 61.6
Q 196.15 58.6 191.85 58.6
L 10.3 58.6
Q 6 58.6 3 61.6 0 64.65 0 68.95
L 0 79.25 202.2 79.25 202.2 68.95
Q 202.2 64.65 199.15 61.6 Z"/>
</g>

<g id="Mask_VetorBlogueiro_ai_0_Layer_1__Clip_Group__3_0_2_MASK_0_FILL">
<path fill="#FFFFFF" stroke="none" d="
M 192.25 77.15
L 192.25 0 0 0 0 77.15 192.25 77.15 Z"/>
</g>

<g id="VetorBlogueiro_ai_0_Layer_1__Clip_Group__3_0_Layer2_0_FILL">
<path fill="#695AC0" stroke="none" d="
M 11.9 31
L 11.9 57.45 67.8 57.45 67.8 31 11.9 31 Z"/>
</g>

<g id="VetorBlogueiro_ai_0_Layer_1__Clip_Group__3_0_Layer2_1_FILL">
<path fill="#7D6FCF" stroke="none" d="
M 11.9 50.4
L 11.9 57.45 67.8 57.45 67.8 50.4 11.9 50.4 Z"/>
</g>

<g id="VetorBlogueiro_ai_0_Layer_1__Clip_Group__3_0_Layer2_2_FILL">
<path fill="#695AC0" stroke="none" d="
M 130.7 37.2
L 130.7 25.15 84.15 25.15 84.15 37.2 130.7 37.2 Z"/>
</g>

<g id="VetorBlogueiro_ai_0_Layer_1__Clip_Group__3_0_Layer2_3_FILL">
<path fill="#7D6FCF" stroke="none" d="
M 133.9 45.1
L 133.9 37.2 80.95 37.2 80.95 45.1 133.9 45.1 Z"/>
</g>

<g id="VetorBlogueiro_ai_0_Layer_1__Clip_Group__3_0_Layer2_4_FILL">
<path fill="#695AC0" stroke="none" d="
M 135.35 57.45
L 135.35 45.1 79.5 45.1 79.5 57.45 135.35 57.45 Z"/>
</g>

<g id="VetorBlogueiro_ai_0_Layer_1__Clip_Group__3_0_Layer2_5_FILL">
<path fill="#7D6FCF" stroke="none" d="
M 135.35 57.45
L 135.35 54.1 79.5 54.1 79.5 57.45 135.35 57.45 Z"/>
</g>

<g id="VetorBlogueiro_ai_0_Layer_1__Clip_Group__3_0_Layer2_6_FILL">
<path fill="#695AC0" stroke="none" d="
M 189.35 60.35
Q 186.5 57.45 182.4 57.45
L 9.8 57.45
Q 5.75 57.45 2.9 60.35 0 63.2 0 67.3
L 0 77.15 192.25 77.15 192.25 67.3
Q 192.25 63.2 189.35 60.35 Z"/>
</g>

<g id="VetorBlogueiro_ai_0_Layer_1__Clip_Group__3_0_Layer2_7_FILL">
<path fill="#7E70CD" stroke="none" d="
M 176.2 15.25
Q 173.25 11.3 168.55 9.85
L 168.55 1.55 159.55 1.55 159.55 9.85
Q 154.85 11.3 151.9 15.25 148.9 19.25 148.9 24.3
L 148.9 57.45 179.2 57.45 179.2 24.3
Q 179.2 19.25 176.2 15.25 Z"/>
</g>

<g id="VetorBlogueiro_ai_0_Layer_1__Clip_Group__3_0_Layer2_8_FILL">
<path fill="#695AC0" stroke="none" d="
M 168.55 3.1
Q 169.2 3.1 169.65 2.65 170.1 2.2 170.1 1.55 170.1 0.9 169.65 0.45 169.2 0 168.55 0
L 159.55 0
Q 158.9 0 158.45 0.45 158 0.9 158 1.55 158 2.2 158.45 2.65 158.9 3.1 159.55 3.1
L 168.55 3.1 Z"/>
</g>

<g id="Layer8_3_FILL">
<path fill="#695AC0" stroke="none" d="
M 269.6 430.15
L 269.6 400.75 187.8 400.75 187.8 430.15 269.6 430.15 Z"/>
</g>

<g id="Layer8_4_FILL">
<path fill="#FFFFFF" stroke="none" d="
M 269.6 423.35
L 269.6 407.55 194.6 407.55 194.6 423.35 269.6 423.35 Z"/>
</g>

<g id="Layer8_5_FILL">
<path fill="#7E70CD" stroke="none" d="
M 187.8 430.15
L 187.8 459.5 326.4 459.5 326.4 430.15 187.8 430.15 Z"/>
</g>

<g id="Layer8_6_FILL">
<path fill="#FFFFFF" stroke="none" d="
M 194.6 436.9
L 194.6 452.7 326.4 452.7 326.4 436.9 194.6 436.9 Z"/>
</g>

<g id="Layer8_7_FILL">
<path fill="#695AC0" stroke="none" d="
M 234.2 391.25
L 198.85 391.25 198.85 400 234.2 400 234.2 391.25 Z"/>
</g>

<g id="Layer8_8_FILL">
<path fill="#FFFFFF" stroke="none" d="
M 242.15 394.15
L 234.2 391.25 234.2 400 242.15 397.1 242.15 394.15 Z"/>
</g>

<g id="Layer8_9_FILL">
<path fill="#5E4FB6" stroke="none" d="
M 246.1 395.65
L 242.15 394.15 242.15 397.1 246.1 395.65 Z"/>
</g>

<g id="Mask_VetorBlogueiro_ai_0_Layer_1__Clip_Group__6_0_2_MASK_0_FILL">
<path fill="#FFFFFF" stroke="none" d="
M 0 0
L 0 8.75 9 8.75 9 0 0 0 Z"/>
</g>

<g id="VetorBlogueiro_ai_0_Layer_1__Clip_Group__6_0_Layer2_0_FILL">
<path fill="#5E4FB6" stroke="none" d="
M 4.1 0
Q 2.4 0 1.2 1.3 0 2.55 0 4.4 0 6.2 1.2 7.5 2.4 8.75 4.1 8.75
L 9 8.75 9 0 4.1 0 Z"/>
</g>

<g id="janela_0_Layer0_0_FILL">
<path fill="#695AC0" stroke="none" d="
M 388.75 290.6
Q 383.9 290.6 380.45 294.05 377 297.5 377 302.35
L 377 320 613 320 613 302.35
Q 613 297.5 609.5 294.05 606.05 290.6 601.2 290.6
L 598.25 290.6 598.25 55 391.75 55 391.75 290.6 388.75 290.6
M 495 131.6
Q 490.9 131.6 487.7 134.1 484.55 136.55 483.55 140.4
L 415.3 140.4 415.3 78.6 574.65 78.6 574.65 140.4 506.4 140.4
Q 505.4 136.55 502.3 134.1 499.1 131.6 495 131.6
M 574.65 163.95
L 574.65 290.6 415.3 290.6 415.3 163.95 574.65 163.95
M 565.75 185.95
L 552.6 172.8 531.75 172.8 565.75 206.75 565.75 185.95
M 552.6 87.4
L 531.75 87.4 565.75 121.4 565.75 100.55 552.6 87.4 Z"/>
</g>

<g id="Layer7_0_FILL">
<path fill="#FDD557" stroke="none" d="
M 447.75 274.6
Q 428.85 274.6 411.6 281.9 394.95 288.95 382.1 301.8 369.25 314.65 362.2 331.3 354.9 348.55 354.9 367.45
L 354.9 425.1
Q 354.9 439.6 358.65 449.85 362.3513671875 459.9669921875 367.55 460.1
L 590.95 460.25
Q 595 456.35 597.85 449.75 600.7 443.05 600.5 437.9
L 600.5 367.45
Q 600.5 348.55 593.2 331.3 586.15 314.65 573.3 301.8 560.45 288.95 543.8 281.9 526.6 274.6 507.7 274.6
L 447.75 274.6 Z"/>
</g>

<g id="Layer7_1_FILL">
<path fill="#FEBC00" stroke="none" d="
M 401.3 323.8
Q 388.45 310.95 371.85 303.9 354.6 296.6 335.75 296.6
L 294.65 296.6
Q 275.8 296.6 258.55 303.9 241.9 310.95 229.1 323.8 216.25 336.6 209.2 353.25 201.9 370.5 201.9 389.35
L 201.9 447.1
Q 201.9 461.6 205.35 471.85 208.8 481.95 213.65 482.1
L 424.15 482.1
Q 424.95 481.25 426.65 474.35 428.6 466.4 428.5 460.95 428.45 461.15 428.45 459.9
L 428.45 389.35
Q 428.45 370.5 421.15 353.25 414.15 336.6 401.3 323.8 Z"/>
</g>

<g id="Layer7_2_FILL">
<path fill="#FDD557" stroke="none" d="
M 570.95 490.4
L 570.95 476.8 551.75 476.8 551.75 490.4 570.95 490.4 Z"/>
</g>

<g id="Layer7_3_FILL">
<path fill="#FDBC00" stroke="none" d="
M 552.35 490.4
L 563.2 476.8 385.25 476.8 385.25 490.4 552.35 490.4 Z"/>
</g>

<g id="Layer7_4_FILL">
<path fill="#695AC0" stroke="none" d="
M 570.95 543.55
L 570.95 490.4 385.25 490.4 385.25 543.55 570.95 543.55 Z"/>
</g>

<g id="Layer7_5_FILL">
<path fill="#695AC0" stroke="none" d="
M 23.5 482.65
L 23.5 498.15 598.15 498.15 598.15 482.65 23.5 482.65 Z"/>
</g>

<g id="Layer7_6_FILL">
<path fill="#7E70CD" stroke="none" d="
M 274 477
L 247 477 247 544 274 544 274 477 Z"/>
</g>

<g id="Layer7_7_FILL">
<path fill="#7E70CD" stroke="none" d="
M 714 477
L 687 477 687 544 714 544 714 477 Z"/>
</g>

<g id="Layer7_8_FILL">
<path fill="#F57E4C" stroke="none" d="
M 479 167
Q 454.8 167 437.65 184.15 420.55 201.25 420.55 225.5
L 420.55 273.6
Q 420.55 297.85 437.65 315 454.75 332.1 479 332.1 500.3 332.1 516.6 318.45 532.7 304.95 536.55 284.4 536.95 284.5 537.85 284.5 542.6 284.5 545.95 280.1 549.3 275.65 549.3 269.35 549.3 263.1 545.95 258.65 542.6 254.2 537.85 254.2
L 537.5 254.2 537.5 225.5
Q 537.5 201.25 520.4 184.15 503.25 167 479 167 Z"/>
</g>

<g id="Mask_VetorBlogueiro_ai_0_Layer_1__Clip_Group__4_0_2_MASK_0_FILL">
<path fill="#FFFFFF" stroke="none" d="
M 0 0
L 0 146.75 101.5 146.75 101.5 0 0 0 Z"/>
</g>

<g id="VetorBlogueiro_ai_0_Layer_1__Clip_Group__4_0_Layer2_0_FILL">
<path fill="#EB5C34" stroke="none" d="
M 101.5 86.75
L 101.5 60
Q 101.5 35.15 86.65 17.55 71.75 0 50.75 0 29.7 0 14.85 17.55 0 35.15 0 60
L 0 86.75
Q 0 111.6 14.85 129.15 29.7 146.75 50.75 146.75 71.75 146.75 86.65 129.15 101.5 111.6 101.5 86.75 Z"/>
</g>

<g id="Layer7_10_FILL">
<path fill="#EB5C34" stroke="none" d="
M 417.75 254.2
Q 413 254.2 409.65 258.65 406.3 263.1 406.3 269.35 406.3 275.65 409.65 280.1 413 284.5 417.75 284.5 422.5 284.5 425.85 280.1 429.2 275.65 429.2 269.35 429.2 263.1 425.85 258.65 422.5 254.2 417.75 254.2 Z"/>
</g>

<g id="Layer7_11_FILL">
<path fill="#274476" stroke="none" d="
M 522.9 181.6
Q 508.35 167.05 487.7 167.05
L 470.35 167.05
Q 449.75 167.05 435.15 181.65 420.55 196.25 420.55 216.85
L 420.55 266.65
Q 423.25 266.65 424.45 265.8 427.25 263.8 427.25 257.35 478.9 257.95 508.1 248.9 522.05 244.6 531.2 237.15 531.25 240.8 531.3 247.3 531.35 253.35 531.2 259.95 531.35 263.9 534.45 265.5 536 266.3 537.5 266.3
L 537.5 216.85
Q 537.5 196.2 522.9 181.6 Z"/>
</g>

<g id="Layer7_12_FILL">
<path fill="#8374D3" stroke="none" d="
M 558.55 531.25
Q 558.55 518.15 549.3 508.95 540.1 499.7 527 499.7 513.9 499.7 504.7 508.95 495.45 518.15 495.45 531.25
L 495.45 543.55 558.55 543.55 558.55 531.25 Z"/>
</g>

<g id="Layer7_13_FILL">
<path fill="#8374D3" stroke="none" d="
M 396.4 531.25
L 396.4 543.55 459.5 543.55 459.5 531.25
Q 459.5 518.15 450.25 508.95 441.05 499.7 427.95 499.7 414.85 499.7 405.65 508.95 396.4 518.15 396.4 531.25 Z"/>
</g>

<g id="Layer7_14_FILL">
<path fill="#695AC0" stroke="none" d="
M 664.1 392.3
Q 663.45 394.35 663.1 394.3
L 661.1 401.3 660.1 401.3
Q 659.75 400.95 659.4 401.3 659.1 401.6 659.1 402.3
L 659.1 403.3
Q 659.1 403.9 659.4 404.2 659.7 404.5 660.1 404.3
L 663.1 404.3 669.1 460.3 700.1 460.3 706.1 404.3 709.1 404.3
Q 709.5 404.5 709.8 404.2 710.1 403.9 710.1 403.3
L 710.1 402.3
Q 710.1 401.6 709.8 401.3 709.5 400.95 709.1 401.3
L 708.1 401.3 706.1 394.3
Q 705.75 394.35 705.1 392.3 703.15 392.3 703.1 392.3
L 666.1 392.3
Q 665.05 392.25 664.1 392.3 Z"/>
</g>

<g id="Layer7_15_FILL">
<path fill="#6959C0" stroke="none" d="
M 662.05 392.9
L 661.75 393.55 659.2 400.55 658.3 400.55
Q 657.8 400.55 657.45 400.9 657.1 401.25 657.1 401.7
L 657.1 403.45
Q 657.1 403.9 657.45 404.25 657.8 404.6 658.3 404.6
L 710.75 404.6
Q 711.25 404.6 711.6 404.25 711.95 403.9 711.95 403.45
L 711.95 401.7
Q 711.95 401.25 711.6 400.9 711.25 400.55 710.75 400.55
L 709.85 400.55 707.35 393.5
Q 706.9 392.35 706.25 391.75 705.85 391.45 705.1 391.35
L 704.45 391.3 664.6 391.3
Q 663.5 391.25 662.85 391.8 662.4 392.15 662.05 392.9 Z"/>
</g>

<g id="Layer7_16_FILL">
<path fill="#FFFFFF" stroke="none" d="
M 690.95 431.1
Q 693.5 428.55 693.5 424.95 693.5 421.35 690.95 418.85 688.4 416.3 684.8 416.3 681.2 416.3 678.65 418.85 676.1 421.35 676.1 424.95 676.1 428.55 678.65 431.1 681.2 433.6 684.8 433.6 688.4 433.6 690.95 431.1 Z"/>
</g>

<g id="Layer7_17_FILL">
<path fill="#FFFFFF" stroke="none" d="
M 543 268
Q 541.75 268 540.85 268.9 540 269.75 540 271 540 272.3 540.85 273.15 541.75 274 543 274 544.25 274 545.1 273.15 546 272.25 546 271 546 269.75 545.1 268.9 544.25 268 543 268 Z"/>
</g>

<g id="Layer7_18_FILL">
<path fill="#FFFFFF" stroke="none" d="
M 544 273
L 542 273 542 343.75 544 343.75 544 273 Z"/>
</g>

<g id="Layer7_19_FILL">
<path fill="#FFFFFF" stroke="none" d="
M 416 268
Q 414.75 268 413.85 268.9 413 269.75 413 271 413 272.3 413.85 273.15 414.75 274 416 274 417.25 274 418.1 273.15 419 272.25 419 271 419 269.75 418.1 268.9 417.25 268 416 268 Z"/>
</g>

<g id="Layer7_20_FILL">
<path fill="#FFFFFF" stroke="none" d="
M 417 273
L 415 273 415 343.75 417 343.75 417 273 Z"/>
</g>

<g id="efeito_fuma_a_0_Layer0_0_FILL">
<path fill="#7E70CD" stroke="none" d="
M 715.45 346.15
L 720 346.15
Q 721.7 346.15 722.85 344.95 724.05 343.8 724.05 342.1 724.05 340.4 722.85 339.25 721.7 338.05 720 338.05
L 679 338.05
Q 677.35 338.05 676.15 339.25 674.95 340.4 674.95 342.1 674.95 343.8 676.15 344.95 677.35 346.15 679 346.15
L 700.85 346.15
Q 702.55 346.15 703.7 347.35 704.9 348.55 704.9 350.25 704.9 351.95 703.7 353.1 702.55 354.3 700.85 354.3
L 683 354.3
Q 681.35 354.3 680.15 355.5 678.95 356.7 678.95 358.4 678.95 360.1 680.15 361.25 681.35 362.45 683 362.45
L 687.75 362.45
Q 689.4 362.45 690.6 363.65 691.8 364.85 691.8 366.55 691.8 368.25 690.6 369.4 689.4 370.6 687.75 370.6
L 683 370.6
Q 681.35 370.6 680.15 371.8 678.95 373 678.95 374.7 678.95 376.4 680.15 377.55 681.35 378.75 683 378.75
L 709.15 378.75
Q 710.85 378.75 712 377.55 713.2 376.4 713.2 374.7 713.2 373 712 371.8 710.85 370.6 709.15 370.6
L 702.3 370.6
Q 700.6 370.6 699.45 369.4 698.25 368.25 698.25 366.55 698.25 364.85 699.45 363.65 700.6 362.45 702.3 362.45
L 721.7 362.45
Q 723.4 362.45 724.55 361.25 725.75 360.1 725.75 358.4 725.75 356.7 724.55 355.5 723.4 354.3 721.7 354.3
L 715.45 354.3
Q 713.75 354.3 712.6 353.1 711.4 351.95 711.4 350.25 711.4 348.55 712.6 347.35 713.75 346.15 715.45 346.15 Z"/>
</g>

<g id="M_O_D_0_Layer0_0_FILL">
<path fill="#EE5B3A" stroke="none" d="
M 570.6 444
Q 572.55 444 574.3 443 576.7 441.7 577.55 438.95 579.05 434 583.35 416 584.7 410.45 582.8 406.6 580.75 402.45 574.75 399.65 559 392.25 555.5 390.85 555.4 399.55 555.5 438.15 555.85 439 557.35 439.8 558.7 440.45 559.35 440.45 561.7 440.6 563.1 439.3 563.8 438.6 564.55 437 564.55 440.25 566.85 442.3 568.7 444 570.6 444 Z"/>
</g>

<g id="pc_0_Layer1_0_FILL">
<path fill="#FFFFFF" stroke="none" d="
M 558.55 343.85
L 398.85 343.85 398.85 448.35 558.55 448.35 558.55 343.85 Z"/>
</g>

<g id="pc_0_Layer1_1_FILL">
<path fill="#D8D8D8" stroke="none" d="
M 558.55 346.95
L 398.85 346.95 398.85 448.35 558.55 448.35 558.55 346.95 Z"/>
</g>

<g id="pc_0_Layer1_2_FILL">
<path fill="#82827A" stroke="none" d="
M 558.55 460.1
L 558.55 448.35 398.85 448.35 398.85 460.1 558.55 460.1 Z"/>
</g>

<g id="pc_0_Layer0_0_FILL">
<path fill="#C6C6C6" stroke="none" d="
M 479.5 388
Q 474.3 388 470.65 391.65 467 395.3 467 400.5 467 405.7 470.65 409.35 474.3 413 479.5 413 484.7 413 488.35 409.35 492 405.7 492 400.5 492 395.35 488.35 391.65 484.7 388 479.5 388 Z"/>
</g>

<g id="Layer2_0_MEMBER_0_MEMBER_0_FILL">
<path fill="#FFFFFF" stroke="none" d="
M 86 90.4
Q 86.3 87.8 84.4 84.35 79.5 75.6 70 75.6 56.25 75.4 49.1 75.3 36.35 75.1 25.8 75.75 32.5 66.8 41.5 59.25 48 53.8 61.85 44.3 63.75 43 66.9 40.85 69.3 39.15 70.85 37.55 80.55 27.65 75.25 17.4
L 46.9 17.15 47.05 17
Q 46.7 9.35 46.65 2.7 46.6 0.25 40.35 0 34.05 -0.3 34 3.3 34 5.3 34 8.9 33.95 12.35 33.65 16.55 33.65 16.9 34.25 17.1 12.45 17 0.85 17.2 -0.3 17.2 0.25 19.9 0.85 22.65 2.75 25.8 7.9 34.4 15.1 34.4
L 47.7 34.35
Q 40.7 38.7 35.6 42.4 30.55 46.05 25.25 50.6 17.7 57.15 12.3 63.85 7.2 70.1 2.75 78.05 1.4 80.55 0.8 82.2 -0.35 85.55 0.2 88.35 0.75 89.9 0.95 91.85 1.2 93.05 2.45 92.95 4.85 92.75 35.15 92.85 34.95 101.15 35.05 105.55 35.15 108.05 41.7 108.3 48.2 108.55 48.05 105.45
L 47.85 92.9 83 93.1
Q 85.65 93.1 86 90.4 Z"/>
</g>

<g id="olho_aberto_0_Layer0_0_FILL">
<path fill="#4F235E" stroke="none" d="
M 501.6 283.25
Q 499.3 283.25 497.7 284.7 496.05 286.15 496.05 288.2 496.05 290.25 497.7 291.7 499.3 293.15 501.6 293.15 503.95 293.15 505.55 291.7 507.2 290.25 507.2 288.2 507.2 286.15 505.55 284.7 503.9 283.25 501.6 283.25 Z"/>
</g>

<g id="olho_aberto_0_Layer0_1_FILL">
<path fill="#4F235E" stroke="none" d="
M 451.5 283.25
Q 449.2 283.25 447.55 284.7 445.9 286.15 445.9 288.2 445.9 290.25 447.55 291.7 449.15 293.15 451.5 293.15 453.8 293.15 455.4 291.7 457.05 290.25 457.05 288.2 457.05 286.15 455.4 284.7 453.8 283.25 451.5 283.25 Z"/>
</g>

<g id="money_0_Layer1_0_FILL">
<path fill="#5CCFE6" stroke="none" d="
M 18.25 36.5
Q 25.8 36.5 31.15 31.15 36.5 25.8 36.5 18.25 36.5 10.7 31.15 5.35 25.8 0 18.25 0 10.7 0 5.35 5.35 0 10.7 0 18.25 0 25.8 5.35 31.15 10.7 36.5 18.25 36.5 Z"/>
</g>

<g id="money_0_Layer0_0_FILL">
<path fill="#156777" stroke="none" d="
M 22.55 12.15
Q 21.85 11.4 21.1 10.95 20.25 10.45 19.15 10.35
L 19.15 7.95 17.75 7.95 17.75 10.35
Q 16.95 10.5 16.3 10.8 15.65 11.15 15.2 11.65 14.75 12.2 14.5 12.9 14.25 13.55 14.25 14.35 14.25 15.2 14.55 15.85 14.8 16.5 15.3 17 15.7 17.45 16.35 17.85
L 17.6 18.5
Q 19.35 19.4 19.9 19.9 20.4 20.35 20.65 20.85 20.95 21.4 20.95 22.1 20.95 22.65 20.8 23.1 20.6 23.55 20.3 23.85 19.95 24.2 19.45 24.4 18.95 24.55 18.3 24.55 17.25 24.55 16.25 24.1 15.4 23.7 14.55 22.95
L 13.65 24.3
Q 14.45 25.05 15.5 25.55 16.6 26.05 17.75 26.15
L 17.75 28.55 19.15 28.55 19.15 26.1
Q 20 26 20.7 25.65 21.4 25.3 21.9 24.75 22.35 24.2 22.65 23.5 22.9 22.8 22.9 21.95 22.9 21 22.6 20.3 22.35 19.6 21.85 19.05 21.4 18.6 20.75 18.15
L 19.55 17.45
Q 17.65 16.55 17.25 16.2 16.75 15.8 16.5 15.4 16.2 14.9 16.2 14.25 16.2 13.75 16.35 13.3 16.55 12.9 16.85 12.6 17.15 12.3 17.6 12.1 18.05 11.95 18.6 11.95 19.5 11.95 20.2 12.3 20.8 12.6 21.5 13.35
L 22.55 12.15 Z"/>
</g>

<path id="Layer7_1_1_STROKES" stroke="#000000" stroke-opacity="0" stroke-width="1" stroke-linejoin="round" stroke-linecap="round" fill="none" d="
M 201.9 389.35
Q 201.9 370.5 209.2 353.25 216.25 336.6 229.1 323.8 241.9 310.95 258.55 303.9 275.8 296.6 294.65 296.6
L 335.75 296.6
Q 354.6 296.6 371.85 303.9 388.45 310.95 401.3 323.8 414.15 336.6 421.15 353.25 428.45 370.5 428.45 389.35
L 428.45 459.9
Q 428.45 461.15 428.5 460.95 428.6 466.4 426.65 474.35 424.95 481.25 424.15 482.1
L 213.65 482.1
Q 208.8 481.95 205.35 471.85 201.9 461.6 201.9 447.1
L 201.9 389.35 Z"/>
</defs>

<g transform="matrix( 0.61065673828125, 0, 0, 0.781097412109375, -5.75,-74.95) ">
<mask id="Mask_Mask_1">
<g transform="matrix( 1, 0, 0, 1, 0,0) ">
<use xlink:href="#Mask_VetorBlogueiro_ai_0_Layer_1__Clip_Group__2_0_2_MASK_0_FILL"/>
</g>
</mask>

<g mask="url(#Mask_Mask_1)">
<g transform="matrix( 1, 0, 0, 1, 0,0) ">
<mask id="Mask_Mask_2">
<g transform="matrix( 1, 0, 0, 1, 0,0) ">
<use xlink:href="#Mask_VetorBlogueiro_ai_0_Layer_1__Clip_Group__0_2_MASK_0_FILL"/>
</g>
</mask>

<g mask="url(#Mask_Mask_2)">
<g transform="matrix( 1, 0, 0, 1, 0,88.3) ">
<g transform="matrix( 1, 0, 0, 1, 0,0) ">
<mask id="Mask_Mask_3">
<g transform="matrix( 1, 0, 0, 1, 0,0) ">
<use xlink:href="#Mask_VetorBlogueiro_ai_0_Layer_1__Clip_Group__0_0_2_MASK_0_FILL"/>
</g>
</mask>

<g mask="url(#Mask_Mask_3)">
<g transform="matrix( 1, 0, 0, 1, 0,0) ">
<mask id="Mask_Mask_4">
<g transform="matrix( 1, 0, 0, 1, 0,0) ">
<use xlink:href="#Mask_VetorBlogueiro_ai_0_Layer_1__Clip_Group__1_0_2_MASK_0_FILL"/>
</g>
</mask>

<g mask="url(#Mask_Mask_4)">
<g transform="matrix( 1, 0, 0, 1, 0,0) ">
<use xlink:href="#VetorBlogueiro_ai_0_Layer_1__Clip_Group__1_0_Layer2_0_FILL"/>
</g>
</g>
</g>
</g>
</g>
</g>
</g>
</g>
</g>
</g>

<g transform="matrix( 1, 0, 0, 1, 49,145.7) ">
<mask id="Mask_Mask_5">
<g transform="matrix( 1, 0, 0, 1, 0,0) ">
<use xlink:href="#Mask_VetorBlogueiro_ai_0_Layer_1__Clip_Group__1_0_0_2_MASK_0_FILL"/>
</g>
</mask>

<g mask="url(#Mask_Mask_5)">
<g transform="matrix( 1, 0, 0, 1, 0,0) ">
<use filter="url(#Filter_1)" xlink:href="#VetorBlogueiro_ai_0_Layer_1__Clip_Group__1_0_0_Layer2_0_FILL"/>
</g>

<g transform="matrix( 1, 0, 0, 1, 0,0) ">
<use filter="url(#Filter_1)" xlink:href="#VetorBlogueiro_ai_0_Layer_1__Clip_Group__1_0_0_Layer2_1_FILL"/>
</g>

<g transform="matrix( 1, 0, 0, 1, 0,0) ">
<use filter="url(#Filter_1)" xlink:href="#VetorBlogueiro_ai_0_Layer_1__Clip_Group__1_0_0_Layer2_2_FILL"/>
</g>

<g transform="matrix( 1, 0, 0, 1, 0,0) ">
<use filter="url(#Filter_1)" xlink:href="#VetorBlogueiro_ai_0_Layer_1__Clip_Group__1_0_0_Layer2_3_FILL"/>
</g>

<g transform="matrix( 1, 0, 0, 1, 0,0) ">
<use filter="url(#Filter_1)" xlink:href="#VetorBlogueiro_ai_0_Layer_1__Clip_Group__1_0_0_Layer2_4_FILL"/>
</g>

<g transform="matrix( 1, 0, 0, 1, 0,0) ">
<use filter="url(#Filter_1)" xlink:href="#VetorBlogueiro_ai_0_Layer_1__Clip_Group__1_0_0_Layer2_5_FILL"/>
</g>

<g transform="matrix( 1, 0, 0, 1, 0,0) ">
<use filter="url(#Filter_1)" xlink:href="#VetorBlogueiro_ai_0_Layer_1__Clip_Group__1_0_0_Layer2_6_FILL"/>
</g>

<g transform="matrix( 1, 0, 0, 1, 0,0) ">
<use filter="url(#Filter_1)" xlink:href="#VetorBlogueiro_ai_0_Layer_1__Clip_Group__1_0_0_Layer2_7_FILL"/>
</g>

<g transform="matrix( 1, 0, 0, 1, 0,0) ">
<use filter="url(#Filter_1)" xlink:href="#VetorBlogueiro_ai_0_Layer_1__Clip_Group__1_0_0_Layer2_8_FILL"/>
</g>

<g transform="matrix( 1, 0, 0, 1, 0,0) ">
<use filter="url(#Filter_1)" xlink:href="#VetorBlogueiro_ai_0_Layer_1__Clip_Group__1_0_0_Layer2_9_FILL"/>
</g>

<g transform="matrix( 1, 0, 0, 1, 0,0) ">
<use filter="url(#Filter_1)" xlink:href="#VetorBlogueiro_ai_0_Layer_1__Clip_Group__1_0_0_Layer2_10_FILL"/>
</g>

<g transform="matrix( 1, 0, 0, 1, 0,0) ">
<use filter="url(#Filter_1)" xlink:href="#VetorBlogueiro_ai_0_Layer_1__Clip_Group__1_0_0_Layer2_11_FILL"/>
</g>

<g transform="matrix( 1, 0, 0, 1, 0,0) ">
<use filter="url(#Filter_1)" xlink:href="#VetorBlogueiro_ai_0_Layer_1__Clip_Group__1_0_0_Layer2_12_FILL"/>
</g>

<g transform="matrix( 1, 0, 0, 1, 0,0) ">
<use filter="url(#Filter_1)" xlink:href="#VetorBlogueiro_ai_0_Layer_1__Clip_Group__1_0_0_Layer2_13_FILL"/>
</g>

<g transform="matrix( 1, 0, 0, 1, 0,0) ">
<use filter="url(#Filter_1)" xlink:href="#VetorBlogueiro_ai_0_Layer_1__Clip_Group__1_0_0_Layer2_14_FILL"/>
</g>
</g>
</g>

<g transform="matrix( 1, 0, 0, 1, 98,56.2) ">
<mask id="Mask_Mask_6">
<g transform="matrix( 1, 0, 0, 1, 0,0) ">
<use xlink:href="#Mask_VetorBlogueiro_ai_0_Layer_1__Clip_Group__3_0_2_MASK_0_FILL"/>
</g>
</mask>

<g mask="url(#Mask_Mask_6)">
<g transform="matrix( 1, 0, 0, 1, 0,0) ">
<use filter="url(#Filter_1)" xlink:href="#VetorBlogueiro_ai_0_Layer_1__Clip_Group__3_0_Layer2_0_FILL"/>
</g>

<g transform="matrix( 1, 0, 0, 1, 0,0) ">
<use filter="url(#Filter_1)" xlink:href="#VetorBlogueiro_ai_0_Layer_1__Clip_Group__3_0_Layer2_1_FILL"/>
</g>

<g transform="matrix( 1, 0, 0, 1, 0,0) ">
<use filter="url(#Filter_1)" xlink:href="#VetorBlogueiro_ai_0_Layer_1__Clip_Group__3_0_Layer2_2_FILL"/>
</g>

<g transform="matrix( 1, 0, 0, 1, 0,0) ">
<use filter="url(#Filter_1)" xlink:href="#VetorBlogueiro_ai_0_Layer_1__Clip_Group__3_0_Layer2_3_FILL"/>
</g>

<g transform="matrix( 1, 0, 0, 1, 0,0) ">
<use filter="url(#Filter_1)" xlink:href="#VetorBlogueiro_ai_0_Layer_1__Clip_Group__3_0_Layer2_4_FILL"/>
</g>

<g transform="matrix( 1, 0, 0, 1, 0,0) ">
<use filter="url(#Filter_1)" xlink:href="#VetorBlogueiro_ai_0_Layer_1__Clip_Group__3_0_Layer2_5_FILL"/>
</g>

<g transform="matrix( 1, 0, 0, 1, 0,0) ">
<use filter="url(#Filter_1)" xlink:href="#VetorBlogueiro_ai_0_Layer_1__Clip_Group__3_0_Layer2_6_FILL"/>
</g>

<g transform="matrix( 1, 0, 0, 1, 0,0) ">
<use filter="url(#Filter_1)" xlink:href="#VetorBlogueiro_ai_0_Layer_1__Clip_Group__3_0_Layer2_7_FILL"/>
</g>

<g transform="matrix( 1, 0, 0, 1, 0,0) ">
<use filter="url(#Filter_1)" xlink:href="#VetorBlogueiro_ai_0_Layer_1__Clip_Group__3_0_Layer2_8_FILL"/>
</g>
</g>
</g>

<g transform="matrix( 1, 0, 0, 1, -149,22) ">
<use xlink:href="#Layer8_3_FILL"/>
</g>

<g transform="matrix( 1, 0, 0, 1, -149,22) ">
<use xlink:href="#Layer8_4_FILL"/>
</g>

<g transform="matrix( 1, 0, 0, 1, -149,22) ">
<use xlink:href="#Layer8_5_FILL"/>
</g>

<g transform="matrix( 1, 0, 0, 1, -149,22) ">
<use xlink:href="#Layer8_6_FILL"/>
</g>

<g transform="matrix( 1, 0, 0, 1, -149,22) ">
<use xlink:href="#Layer8_7_FILL"/>
</g>

<g transform="matrix( 1, 0, 0, 1, -149,22) ">
<use xlink:href="#Layer8_8_FILL"/>
</g>

<g transform="matrix( 1, 0, 0, 1, -149,22) ">
<use xlink:href="#Layer8_9_FILL"/>
</g>

<g transform="matrix( 1, 0, 0, 1, 42,413.25) ">
<mask id="Mask_Mask_7">
<g transform="matrix( 1, 0, 0, 1, 0,0) ">
<use xlink:href="#Mask_VetorBlogueiro_ai_0_Layer_1__Clip_Group__6_0_2_MASK_0_FILL"/>
</g>
</mask>

<g mask="url(#Mask_Mask_7)">
<g transform="matrix( 1, 0, 0, 1, 0,0) ">
<use xlink:href="#VetorBlogueiro_ai_0_Layer_1__Clip_Group__6_0_Layer2_0_FILL"/>
</g>
</g>
</g>

<g transform="matrix( 1, 0, 0, 1, 377,55) ">
<g transform="matrix( 1, 0, 0, 1, -377,-55) ">
<use filter="url(#Filter_1)" xlink:href="#janela_0_Layer0_0_FILL"/>
</g>
</g>

<g transform="matrix( 1, 0, 0, 1, -153,22) ">
<use xlink:href="#Layer7_0_FILL"/>
</g>

<g transform="matrix( 1, 0, 0, 1, 0,0) ">
<use xlink:href="#Layer7_1_FILL"/>

<use xlink:href="#Layer7_1_1_STROKES"/>
</g>

<g transform="matrix( 1, 0, 0, 1, -153,21) ">
<use xlink:href="#Layer7_2_FILL"/>
</g>

<g transform="matrix( 1, 0, 0, 1, -153,21) ">
<use xlink:href="#Layer7_3_FILL"/>
</g>

<g transform="matrix( 1, 0, 0, 1, -153,21) ">
<use xlink:href="#Layer7_4_FILL"/>
</g>

<g transform="matrix( 1, 0, 0, 1, 0,-0.5) ">
<use xlink:href="#Layer7_5_FILL"/>
</g>

<g transform="matrix( 1, 0, 0, 1, -153,20.5) ">
<use xlink:href="#Layer7_6_FILL"/>
</g>

<g transform="matrix( 1, 0, 0, 1, -153,20.5) ">
<use xlink:href="#Layer7_7_FILL"/>
</g>

<g transform="matrix( 1, 0, 0, 1, -153,22) ">
<use xlink:href="#Layer7_8_FILL"/>
</g>

<g transform="matrix( 1, 0, 0, 1, 267.8,207.45) ">
<mask id="Mask_Mask_8">
<g transform="matrix( 1, 0, 0, 1, 0,0) ">
<use xlink:href="#Mask_VetorBlogueiro_ai_0_Layer_1__Clip_Group__4_0_2_MASK_0_FILL"/>
</g>
</mask>

<g mask="url(#Mask_Mask_8)">
<g transform="matrix( 1, 0, 0, 1, 0,0) ">
<use xlink:href="#VetorBlogueiro_ai_0_Layer_1__Clip_Group__4_0_Layer2_0_FILL"/>
</g>
</g>
</g>

<g transform="matrix( 1, 0, 0, 1, -153,22) ">
<use xlink:href="#Layer7_10_FILL"/>
</g>

<g transform="matrix( 1, 0, 0, 1, -153,22) ">
<use xlink:href="#Layer7_11_FILL"/>
</g>

<g transform="matrix( 1, 0, 0, 1, -153,21) ">
<use xlink:href="#Layer7_12_FILL"/>
</g>

<g transform="matrix( 1, 0, 0, 1, -153,21) ">
<use xlink:href="#Layer7_13_FILL"/>
</g>

<g transform="matrix( 1, 0, 0, 1, -153,22) ">
<use xlink:href="#Layer7_14_FILL"/>
</g>

<g transform="matrix( 1, 0, 0, 1, -153,22) ">
<use xlink:href="#Layer7_15_FILL"/>
</g>

<g transform="matrix( 1, 0, 0, 1, -153,22) ">
<use xlink:href="#Layer7_16_FILL"/>
</g>

<g transform="matrix( 1, 0, 0, 1, -153,22) ">
<use xlink:href="#Layer7_17_FILL"/>
</g>

<g transform="matrix( 1, 0, 0, 1, -153,22) ">
<use xlink:href="#Layer7_18_FILL"/>
</g>

<g transform="matrix( 1, 0, 0, 1, -153,22) ">
<use xlink:href="#Layer7_19_FILL"/>
</g>

<g transform="matrix( 1, 0, 0, 1, -153,22) ">
<use xlink:href="#Layer7_20_FILL"/>
</g>

<g transform="matrix( 1, 0, 0, 1, 523.1,365.05) ">
<g transform="matrix( 1, 0, 0, 1, 0,0) ">
<g transform="matrix( 1, 0, 0, 1, -674.95,-338.05) ">
<use xlink:href="#efeito_fuma_a_0_Layer0_0_FILL"/>
</g>
</g>
</g>

<g transform="matrix( 1, 0, 0, 1, 402.85,410) ">
<g transform="matrix( 1, 0, 0, 1, 0,0) ">
<g transform="matrix( 1, 0, 0, 1, -555.45,-390.85) ">
<use xlink:href="#M_O_D_0_Layer0_0_FILL"/>
</g>
</g>
</g>

<g transform="matrix( -1, 0, 0, 1, 251,404.2) ">
<g transform="matrix( 0.984130859375, -0.174072265625, 0.174072265625, 0.984130859375, -7.1,2.85) ">
<g transform="matrix( 1, 0, 0, 1, -555.45,-390.85) ">
<use xlink:href="#M_O_D_0_Layer0_0_FILL"/>
</g>
</g>
</g>

<g transform="matrix( 1, 0, 0, 1, 245.85,366.1) ">
<g transform="matrix( 1, 0, 0, 1, -398.85,-343.85) ">
<use xlink:href="#pc_0_Layer1_0_FILL"/>
</g>

<g transform="matrix( 1, 0, 0, 1, -398.85,-332.1) ">
<use xlink:href="#pc_0_Layer1_1_FILL"/>
</g>

<g transform="matrix( 1, 0, 0, 1, -398.85,-343.85) ">
<use xlink:href="#pc_0_Layer1_2_FILL"/>
</g>

<g transform="matrix( 1.20001220703125, 0, 0, 1.20001220703125, -495.55,-417.55) ">
<use xlink:href="#pc_0_Layer0_0_FILL"/>
</g>
</g>

<g transform="matrix( 0.150970458984375, 0, 0, 0.151580810546875, 319.6,421.1) ">
<use xlink:href="#Layer2_0_MEMBER_0_MEMBER_0_FILL"/>
</g>

<g transform="matrix( 1, 0, 0, 1, 292.9,305.25) ">
<g transform="matrix( 1, 0, 0, 1, 0,0) ">
<g transform="matrix( 1, 0, 0, 1, -445.9,-283.25) ">
<use xlink:href="#olho_aberto_0_Layer0_0_FILL"/>
</g>

<g transform="matrix( 1, 0, 0, 1, -445.9,-283.25) ">
<use xlink:href="#olho_aberto_0_Layer0_1_FILL"/>
</g>
</g>
</g>

<g transform="matrix( 1, 0, 0, 1, 195.75,270) ">
<g transform="matrix( 1, 0, 0, 1, 0,0) ">
<g transform="matrix( 1, 0, 0, 1, 0,0) ">
<g transform="matrix( 1, 0, 0, 1, 0,0) ">
<use filter="url(#Filter_2)" xlink:href="#money_0_Layer1_0_FILL"/>
</g>

<g transform="matrix( 1, 0, 0, 1, 0,0) ">
<use filter="url(#Filter_2)" xlink:href="#money_0_Layer0_0_FILL"/>
</g>
</g>
</g>
</g>
</svg>
