<?xml version="1.0" encoding="utf-8"?>
<!DOCTYPE svg PUBLIC "-//W3C//DTD SVG 1.1//EN" "http://www.w3.org/Graphics/SVG/1.1/DTD/svg11.dtd">
<svg version="1.1" xmlns="http://www.w3.org/2000/svg" xmlns:xlink="http://www.w3.org/1999/xlink">

  <symbol id="store" width="20" height="20" viewBox="0 0 20 20">
        <path d="M18 9.5v-1c0-0.078-0.018-0.154-0.053-0.224l-2-4c-0.085-0.169-0.258-0.276-0.447-0.276h-12c-0.189 0-0.363 0.107-0.447 0.276l-2 4c-0.035 0.069-0.053 0.146-0.053 0.224v1c0 0.816 0.393 1.542 1 1.999v6.501h-0.5c-0.276 0-0.5 0.224-0.5 0.5s0.224 0.5 0.5 0.5h16c0.276 0 0.5-0.224 0.5-0.5s-0.224-0.5-0.5-0.5h-0.5v-6.501c0.607-0.457 1-1.182 1-1.999zM11.5 11c-0.827 0-1.5-0.673-1.5-1.5v-0.5h3v0.5c0 0.827-0.673 1.5-1.5 1.5zM2 9.5v-0.5h3v0.5c0 0.827-0.673 1.5-1.5 1.5s-1.5-0.673-1.5-1.5zM9 5v3h-2.86l0.75-3h2.11zM12.11 5l0.75 3h-2.86v-3h2.11zM6 9h3v0.5c0 0.827-0.673 1.5-1.5 1.5s-1.5-0.673-1.5-1.5v-0.5zM14 9h3v0.5c0 0.827-0.673 1.5-1.5 1.5s-1.5-0.673-1.5-1.5v-0.5zM16.691 8h-2.801l-0.75-3h2.051l1.5 3zM3.809 5h2.051l-0.75 3h-2.801l1.5-3zM3 11.95c0.162 0.033 0.329 0.050 0.5 0.050 0.817 0 1.544-0.394 2-1.002 0.456 0.608 1.183 1.002 2 1.002s1.544-0.394 2-1.002c0.361 0.48 0.89 0.827 1.5 0.951v6.050h-8v-6.050zM16 18h-4v-6.050c0.61-0.124 1.139-0.471 1.5-0.951 0.456 0.608 1.183 1.002 2 1.002 0.171 0 0.338-0.017 0.5-0.050v6.050z"></path>
        <path d="M14 14.5c0 0.276-0.224 0.5-0.5 0.5s-0.5-0.224-0.5-0.5c0-0.276 0.224-0.5 0.5-0.5s0.5 0.224 0.5 0.5z"></path>
        <path d="M4.5 15c-0.128 0-0.256-0.049-0.354-0.146-0.195-0.195-0.195-0.512 0-0.707l1-1c0.195-0.195 0.512-0.195 0.707 0s0.195 0.512 0 0.707l-1 1c-0.098 0.098-0.226 0.146-0.354 0.146z"></path>
        <path d="M5.5 17c-0.128 0-0.256-0.049-0.354-0.146-0.195-0.195-0.195-0.512 0-0.707l3-3c0.195-0.195 0.512-0.195 0.707 0s0.195 0.512 0 0.707l-3 3c-0.098 0.098-0.226 0.146-0.354 0.146z"></path>
        <path d="M8.5 17c-0.128 0-0.256-0.049-0.354-0.146-0.195-0.195-0.195-0.512 0-0.707l1-1c0.195-0.195 0.512-0.195 0.707 0s0.195 0.512 0 0.707l-1 1c-0.098 0.098-0.226 0.146-0.354 0.146z"></path>
  </symbol>

  <symbol id="wallet" width="20" height="20" viewBox="0 0 20 20">
        <path d="M17.5 9h-0.5v-2.5c0-0.827-0.673-1.5-1.5-1.5h-2.5v-4.5c0-0.276-0.224-0.5-0.5-0.5h-10c-0.276 0-0.5 0.224-0.5 0.5v4.55c-1.14 0.232-2 1.242-2 2.45v11c0 0.827 0.673 1.5 1.5 1.5h16c0.827 0 1.5-0.673 1.5-1.5v-8c0-0.827-0.673-1.5-1.5-1.5zM3 1h9v6h-9v-6zM2 6.086v1.414c0 0.276 0.224 0.5 0.5 0.5h12c0.276 0 0.5-0.224 0.5-0.5s-0.224-0.5-0.5-0.5h-1.5v-1h2.5c0.276 0 0.5 0.224 0.5 0.5v2.5h-13.5c-0.827 0-1.5-0.673-1.5-1.5 0-0.652 0.418-1.208 1-1.414zM18 18.5c0 0.276-0.224 0.5-0.5 0.5h-16c-0.276 0-0.5-0.224-0.5-0.5v-9.001c0.418 0.315 0.938 0.501 1.5 0.501h15c0.276 0 0.5 0.224 0.5 0.5v8z"></path>
        <path d="M10.5 3h-0.5v-0.5c0-0.276-0.224-0.5-0.5-0.5h-2c-0.276 0-0.5 0.224-0.5 0.5v1.5h-1v-1.5c0-0.276-0.224-0.5-0.5-0.5s-0.5 0.224-0.5 0.5v0.5h-0.5c-0.276 0-0.5 0.224-0.5 0.5s0.224 0.5 0.5 0.5h0.5v0.5c0 0.276 0.224 0.5 0.5 0.5h2c0.276 0 0.5-0.224 0.5-0.5v-1.5h1v1.5c0 0.276 0.224 0.5 0.5 0.5s0.5-0.224 0.5-0.5v-0.5h0.5c0.276 0 0.5-0.224 0.5-0.5s-0.224-0.5-0.5-0.5z"></path>
        <path d="M16.5 18h-4c-0.276 0-0.5-0.224-0.5-0.5s0.224-0.5 0.5-0.5h4c0.276 0 0.5 0.224 0.5 0.5s-0.224 0.5-0.5 0.5z"></path>
  </symbol>

  <symbol id="dollar-bag" width="20" height="20" viewBox="0 0 20 20">
        <path d="M11.5 13h-3.5v-1h3.5c0.276 0 0.5-0.224 0.5-0.5s-0.224-0.5-0.5-0.5h-1.5v-0.5c0-0.276-0.224-0.5-0.5-0.5s-0.5 0.224-0.5 0.5v0.5h-1.5c-0.276 0-0.5 0.224-0.5 0.5v2c0 0.276 0.224 0.5 0.5 0.5h3.5v1h-3.5c-0.276 0-0.5 0.224-0.5 0.5s0.224 0.5 0.5 0.5h1.5v0.5c0 0.276 0.224 0.5 0.5 0.5s0.5-0.224 0.5-0.5v-0.5h1.5c0.276 0 0.5-0.224 0.5-0.5v-2c0-0.276-0.224-0.5-0.5-0.5z"></path>
        <path d="M15.733 10.136c-0.716-1.203-1.626-2.21-2.358-3.018-0.539-0.596-1.093-1.208-1.291-1.633 0.331-0.193 0.556-0.418 0.77-0.631 0.195-0.195 0.195-0.512 0-0.707-0.171-0.171-0.434-0.192-0.628-0.064 0.222-0.664 0.67-1.503 1.575-2.182 0.193-0.144 0.255-0.406 0.148-0.622-0.026-0.053-0.653-1.289-1.948-1.289-0.81 0-1.063 0.51-1.198 0.783-0.108 0.218-0.112 0.227-0.302 0.227-0.378 0-0.809-0.219-1.266-0.451-0.542-0.275-1.102-0.559-1.719-0.559l-0.020 0c-1.17 0.012-2.231 1.040-2.348 1.157-0.103 0.103-0.155 0.244-0.145 0.389s0.083 0.278 0.199 0.365c0.736 0.552 1.261 1.272 1.56 2.141 0.005 0.014 0.009 0.027 0.014 0.041-0.194-0.127-0.457-0.105-0.627 0.065-0.195 0.195-0.195 0.512 0 0.707 0.213 0.213 0.438 0.438 0.77 0.632-0.197 0.424-0.752 1.036-1.292 1.633-0.732 0.809-1.643 1.815-2.358 3.018-0.852 1.433-1.267 2.861-1.267 4.364 0 2.046 0.755 3.536 2.243 4.429 1.218 0.731 2.889 1.071 5.257 1.071s4.039-0.34 5.257-1.071c1.488-0.893 2.243-2.383 2.243-4.429 0-1.503-0.414-2.931-1.267-4.364zM6.278 1.501c0.343-0.248 0.809-0.507 1.227-0.511l0.010-0c0.378 0 0.809 0.219 1.266 0.451 0.542 0.275 1.102 0.559 1.719 0.559 0.81 0 1.063-0.51 1.198-0.783 0.108-0.218 0.112-0.227 0.302-0.227 0.367 0 0.647 0.218 0.825 0.417-1.379 1.229-1.712 2.748-1.792 3.437-0.359 0.098-0.843 0.157-1.533 0.157s-1.174-0.059-1.533-0.157c-0.078-0.672-0.397-2.131-1.689-3.342zM9.5 19c-4.556 0-6.5-1.346-6.5-4.5 0-2.992 1.946-5.141 3.366-6.711 0.69-0.762 1.24-1.37 1.486-1.947 0.424 0.098 0.958 0.158 1.648 0.158s1.224-0.060 1.648-0.158c0.246 0.577 0.796 1.185 1.485 1.947 1.421 1.57 3.366 3.719 3.366 6.711 0 3.154-1.944 4.5-6.5 4.5z"></path>
  </symbol>
</svg>
