<?xml version="1.0" encoding="utf-8"?>
<!DOCTYPE svg PUBLIC "-//W3C//DTD SVG 1.1//EN" "http://www.w3.org/Graphics/SVG/1.1/DTD/svg11.dtd">
<svg version="1.1" xmlns="http://www.w3.org/2000/svg" xmlns:xlink="http://www.w3.org/1999/xlink">
    <symbol id="store" width="20" height="20" viewBox="0 0 20 20">
        <path d="M18 9.5v-1c0-0.078-0.018-0.154-0.053-0.224l-2-4c-0.085-0.169-0.258-0.276-0.447-0.276h-12c-0.189 0-0.363 0.107-0.447 0.276l-2 4c-0.035 0.069-0.053 0.146-0.053 0.224v1c0 0.816 0.393 1.542 1 1.999v6.501h-0.5c-0.276 0-0.5 0.224-0.5 0.5s0.224 0.5 0.5 0.5h16c0.276 0 0.5-0.224 0.5-0.5s-0.224-0.5-0.5-0.5h-0.5v-6.501c0.607-0.457 1-1.182 1-1.999zM11.5 11c-0.827 0-1.5-0.673-1.5-1.5v-0.5h3v0.5c0 0.827-0.673 1.5-1.5 1.5zM2 9.5v-0.5h3v0.5c0 0.827-0.673 1.5-1.5 1.5s-1.5-0.673-1.5-1.5zM9 5v3h-2.86l0.75-3h2.11zM12.11 5l0.75 3h-2.86v-3h2.11zM6 9h3v0.5c0 0.827-0.673 1.5-1.5 1.5s-1.5-0.673-1.5-1.5v-0.5zM14 9h3v0.5c0 0.827-0.673 1.5-1.5 1.5s-1.5-0.673-1.5-1.5v-0.5zM16.691 8h-2.801l-0.75-3h2.051l1.5 3zM3.809 5h2.051l-0.75 3h-2.801l1.5-3zM3 11.95c0.162 0.033 0.329 0.050 0.5 0.050 0.817 0 1.544-0.394 2-1.002 0.456 0.608 1.183 1.002 2 1.002s1.544-0.394 2-1.002c0.361 0.48 0.89 0.827 1.5 0.951v6.050h-8v-6.050zM16 18h-4v-6.050c0.61-0.124 1.139-0.471 1.5-0.951 0.456 0.608 1.183 1.002 2 1.002 0.171 0 0.338-0.017 0.5-0.050v6.050z"></path>
        <path d="M14 14.5c0 0.276-0.224 0.5-0.5 0.5s-0.5-0.224-0.5-0.5c0-0.276 0.224-0.5 0.5-0.5s0.5 0.224 0.5 0.5z"></path>
        <path d="M4.5 15c-0.128 0-0.256-0.049-0.354-0.146-0.195-0.195-0.195-0.512 0-0.707l1-1c0.195-0.195 0.512-0.195 0.707 0s0.195 0.512 0 0.707l-1 1c-0.098 0.098-0.226 0.146-0.354 0.146z"></path>
        <path d="M5.5 17c-0.128 0-0.256-0.049-0.354-0.146-0.195-0.195-0.195-0.512 0-0.707l3-3c0.195-0.195 0.512-0.195 0.707 0s0.195 0.512 0 0.707l-3 3c-0.098 0.098-0.226 0.146-0.354 0.146z"></path>
        <path d="M8.5 17c-0.128 0-0.256-0.049-0.354-0.146-0.195-0.195-0.195-0.512 0-0.707l1-1c0.195-0.195 0.512-0.195 0.707 0s0.195 0.512 0 0.707l-1 1c-0.098 0.098-0.226 0.146-0.354 0.146z"></path>
    </symbol>

    <symbol id="wallet" width="20" height="20" viewBox="0 0 20 20">
        <path d="M17.5 9h-0.5v-2.5c0-0.827-0.673-1.5-1.5-1.5h-2.5v-4.5c0-0.276-0.224-0.5-0.5-0.5h-10c-0.276 0-0.5 0.224-0.5 0.5v4.55c-1.14 0.232-2 1.242-2 2.45v11c0 0.827 0.673 1.5 1.5 1.5h16c0.827 0 1.5-0.673 1.5-1.5v-8c0-0.827-0.673-1.5-1.5-1.5zM3 1h9v6h-9v-6zM2 6.086v1.414c0 0.276 0.224 0.5 0.5 0.5h12c0.276 0 0.5-0.224 0.5-0.5s-0.224-0.5-0.5-0.5h-1.5v-1h2.5c0.276 0 0.5 0.224 0.5 0.5v2.5h-13.5c-0.827 0-1.5-0.673-1.5-1.5 0-0.652 0.418-1.208 1-1.414zM18 18.5c0 0.276-0.224 0.5-0.5 0.5h-16c-0.276 0-0.5-0.224-0.5-0.5v-9.001c0.418 0.315 0.938 0.501 1.5 0.501h15c0.276 0 0.5 0.224 0.5 0.5v8z"></path>
        <path d="M10.5 3h-0.5v-0.5c0-0.276-0.224-0.5-0.5-0.5h-2c-0.276 0-0.5 0.224-0.5 0.5v1.5h-1v-1.5c0-0.276-0.224-0.5-0.5-0.5s-0.5 0.224-0.5 0.5v0.5h-0.5c-0.276 0-0.5 0.224-0.5 0.5s0.224 0.5 0.5 0.5h0.5v0.5c0 0.276 0.224 0.5 0.5 0.5h2c0.276 0 0.5-0.224 0.5-0.5v-1.5h1v1.5c0 0.276 0.224 0.5 0.5 0.5s0.5-0.224 0.5-0.5v-0.5h0.5c0.276 0 0.5-0.224 0.5-0.5s-0.224-0.5-0.5-0.5z"></path>
        <path d="M16.5 18h-4c-0.276 0-0.5-0.224-0.5-0.5s0.224-0.5 0.5-0.5h4c0.276 0 0.5 0.224 0.5 0.5s-0.224 0.5-0.5 0.5z"></path>
    </symbol>

    <symbol id="dollar-bag" width="20" height="20" viewBox="0 0 20 20">
        <path d="M11.5 13h-3.5v-1h3.5c0.276 0 0.5-0.224 0.5-0.5s-0.224-0.5-0.5-0.5h-1.5v-0.5c0-0.276-0.224-0.5-0.5-0.5s-0.5 0.224-0.5 0.5v0.5h-1.5c-0.276 0-0.5 0.224-0.5 0.5v2c0 0.276 0.224 0.5 0.5 0.5h3.5v1h-3.5c-0.276 0-0.5 0.224-0.5 0.5s0.224 0.5 0.5 0.5h1.5v0.5c0 0.276 0.224 0.5 0.5 0.5s0.5-0.224 0.5-0.5v-0.5h1.5c0.276 0 0.5-0.224 0.5-0.5v-2c0-0.276-0.224-0.5-0.5-0.5z"></path>
        <path d="M15.733 10.136c-0.716-1.203-1.626-2.21-2.358-3.018-0.539-0.596-1.093-1.208-1.291-1.633 0.331-0.193 0.556-0.418 0.77-0.631 0.195-0.195 0.195-0.512 0-0.707-0.171-0.171-0.434-0.192-0.628-0.064 0.222-0.664 0.67-1.503 1.575-2.182 0.193-0.144 0.255-0.406 0.148-0.622-0.026-0.053-0.653-1.289-1.948-1.289-0.81 0-1.063 0.51-1.198 0.783-0.108 0.218-0.112 0.227-0.302 0.227-0.378 0-0.809-0.219-1.266-0.451-0.542-0.275-1.102-0.559-1.719-0.559l-0.020 0c-1.17 0.012-2.231 1.040-2.348 1.157-0.103 0.103-0.155 0.244-0.145 0.389s0.083 0.278 0.199 0.365c0.736 0.552 1.261 1.272 1.56 2.141 0.005 0.014 0.009 0.027 0.014 0.041-0.194-0.127-0.457-0.105-0.627 0.065-0.195 0.195-0.195 0.512 0 0.707 0.213 0.213 0.438 0.438 0.77 0.632-0.197 0.424-0.752 1.036-1.292 1.633-0.732 0.809-1.643 1.815-2.358 3.018-0.852 1.433-1.267 2.861-1.267 4.364 0 2.046 0.755 3.536 2.243 4.429 1.218 0.731 2.889 1.071 5.257 1.071s4.039-0.34 5.257-1.071c1.488-0.893 2.243-2.383 2.243-4.429 0-1.503-0.414-2.931-1.267-4.364zM6.278 1.501c0.343-0.248 0.809-0.507 1.227-0.511l0.010-0c0.378 0 0.809 0.219 1.266 0.451 0.542 0.275 1.102 0.559 1.719 0.559 0.81 0 1.063-0.51 1.198-0.783 0.108-0.218 0.112-0.227 0.302-0.227 0.367 0 0.647 0.218 0.825 0.417-1.379 1.229-1.712 2.748-1.792 3.437-0.359 0.098-0.843 0.157-1.533 0.157s-1.174-0.059-1.533-0.157c-0.078-0.672-0.397-2.131-1.689-3.342zM9.5 19c-4.556 0-6.5-1.346-6.5-4.5 0-2.992 1.946-5.141 3.366-6.711 0.69-0.762 1.24-1.37 1.486-1.947 0.424 0.098 0.958 0.158 1.648 0.158s1.224-0.060 1.648-0.158c0.246 0.577 0.796 1.185 1.485 1.947 1.421 1.57 3.366 3.719 3.366 6.711 0 3.154-1.944 4.5-6.5 4.5z"></path>
    </symbol>

    <symbol id="wrench" width="20" height="20" viewBox="0 0 20 20">
        <path d="M16.75 20.013c-0.602 0-1.169-0.232-1.597-0.655-0.001-0.001-0.002-0.002-0.002-0.002l-7.71-7.709c-0.619 0.234-1.27 0.352-1.941 0.352-3.033 0-5.5-2.467-5.5-5.5 0-0.789 0.164-1.551 0.486-2.264 0.068-0.15 0.204-0.256 0.366-0.286s0.327 0.022 0.443 0.138l2.912 2.912h1.793v-1.793l-2.919-2.919c-0.116-0.116-0.168-0.282-0.138-0.443s0.136-0.298 0.286-0.366c0.693-0.313 1.478-0.479 2.272-0.479 3.033 0 5.5 2.467 5.5 5.5 0 0.663-0.12 1.312-0.357 1.936l7.704 7.704c0.43 0.425 0.668 0.992 0.671 1.596s-0.231 1.173-0.656 1.604c-0.428 0.434-1.001 0.673-1.613 0.673zM15.856 18.648c0.239 0.236 0.557 0.366 0.894 0.366 0.342 0 0.662-0.133 0.901-0.376s0.369-0.56 0.368-0.897c-0.001-0.337-0.134-0.653-0.375-0.89-0.001-0.001-0.002-0.002-0.002-0.002l-7.942-7.942c-0.147-0.147-0.188-0.37-0.102-0.56 0.267-0.591 0.402-1.212 0.402-1.847 0-2.481-2.019-4.5-4.5-4.5-0.392 0-0.78 0.049-1.15 0.143l2.504 2.504c0.094 0.094 0.146 0.221 0.146 0.354v2.5c0 0.276-0.224 0.5-0.5 0.5h-2.5c-0.133 0-0.26-0.053-0.354-0.146l-2.5-2.5c-0.098 0.371-0.147 0.754-0.147 1.146 0 2.481 2.019 4.5 4.5 4.5 0.646 0 1.269-0.134 1.852-0.397 0.19-0.086 0.412-0.045 0.56 0.102l7.944 7.943z"></path>
    </symbol>

    <symbol id="link2" width="20" height="20" viewBox="0 0 20 20">
        <path d="M10.682 12.998c-0.943 0-1.886-0.359-2.604-1.077-0.195-0.195-0.195-0.512 0-0.707s0.512-0.195 0.707 0c1.046 1.046 2.747 1.046 3.793 0l3.636-3.636c1.046-1.046 1.046-2.747 0-3.793s-2.747-1.046-3.793 0l-3.068 3.068c-0.195 0.195-0.512 0.195-0.707 0s-0.195-0.512 0-0.707l3.068-3.068c1.436-1.436 3.772-1.436 5.207 0s1.436 3.772 0 5.207l-3.636 3.636c-0.718 0.718-1.661 1.077-2.604 1.077z"></path>
        <path d="M4.682 18.998c-0.943 0-1.886-0.359-2.604-1.077-1.436-1.436-1.436-3.772 0-5.207l3.636-3.636c1.436-1.436 3.772-1.436 5.207 0 0.195 0.195 0.195 0.512 0 0.707s-0.512 0.195-0.707 0c-1.046-1.046-2.747-1.046-3.793 0l-3.636 3.636c-1.046 1.046-1.046 2.747 0 3.793s2.747 1.046 3.793 0l3.068-3.068c0.195-0.195 0.512-0.195 0.707 0s0.195 0.512 0 0.707l-3.068 3.068c-0.718 0.718-1.661 1.077-2.604 1.077z"></path>
    </symbol>

    <symbol id="receipt" width="20" height="20" viewBox="0 0 20 20">
        <path d="M17.5 20c-0.076 0-0.153-0.017-0.224-0.053l-1.776-0.888-1.776 0.888c-0.141 0.070-0.306 0.070-0.447 0l-1.776-0.888-1.776 0.888c-0.141 0.070-0.306 0.070-0.447 0l-1.776-0.888-1.776 0.888c-0.141 0.070-0.306 0.070-0.447 0l-1.776-0.888-1.776 0.888c-0.155 0.077-0.339 0.069-0.486-0.022s-0.237-0.252-0.237-0.425v-18c0-0.189 0.107-0.363 0.276-0.447l2-1c0.141-0.070 0.306-0.070 0.447 0l1.776 0.888 1.776-0.888c0.141-0.070 0.306-0.070 0.447 0l1.776 0.888 1.776-0.888c0.141-0.070 0.306-0.070 0.447 0l1.776 0.888 1.776-0.888c0.141-0.070 0.306-0.070 0.447 0l2 1c0.169 0.085 0.276 0.258 0.276 0.447v18c0 0.173-0.090 0.334-0.237 0.425-0.080 0.050-0.171 0.075-0.263 0.075zM11.5 18c0.077 0 0.153 0.018 0.224 0.053l1.776 0.888 1.776-0.888c0.141-0.070 0.306-0.070 0.447 0l1.276 0.638v-16.882l-1.5-0.75-1.776 0.888c-0.141 0.070-0.306 0.070-0.447 0l-1.776-0.888-1.776 0.888c-0.141 0.070-0.306 0.070-0.447 0l-1.776-0.888-1.776 0.888c-0.141 0.070-0.306 0.070-0.447 0l-1.776-0.888-1.5 0.75v16.882l1.276-0.638c0.141-0.070 0.306-0.070 0.447 0l1.776 0.888 1.776-0.888c0.141-0.070 0.306-0.070 0.447 0l1.776 0.888 1.776-0.888c0.070-0.035 0.147-0.053 0.224-0.053z"></path>
        <path d="M11.5 13h-3.5v-1h3.5c0.276 0 0.5-0.224 0.5-0.5s-0.224-0.5-0.5-0.5h-1.5v-0.5c0-0.276-0.224-0.5-0.5-0.5s-0.5 0.224-0.5 0.5v0.5h-1.5c-0.276 0-0.5 0.224-0.5 0.5v2c0 0.276 0.224 0.5 0.5 0.5h3.5v1h-3.5c-0.276 0-0.5 0.224-0.5 0.5s0.224 0.5 0.5 0.5h1.5v0.5c0 0.276 0.224 0.5 0.5 0.5s0.5-0.224 0.5-0.5v-0.5h1.5c0.276 0 0.5-0.224 0.5-0.5v-2c0-0.276-0.224-0.5-0.5-0.5z"></path>
        <path d="M12.5 5h-6c-0.276 0-0.5-0.224-0.5-0.5s0.224-0.5 0.5-0.5h6c0.276 0 0.5 0.224 0.5 0.5s-0.224 0.5-0.5 0.5z"></path>
        <path d="M14.5 7h-10c-0.276 0-0.5-0.224-0.5-0.5s0.224-0.5 0.5-0.5h10c0.276 0 0.5 0.224 0.5 0.5s-0.224 0.5-0.5 0.5z"></path>
        <path d="M14.5 9h-10c-0.276 0-0.5-0.224-0.5-0.5s0.224-0.5 0.5-0.5h10c0.276 0 0.5 0.224 0.5 0.5s-0.224 0.5-0.5 0.5z"></path>
    </symbol>

    <symbol id="quote" width="23" height="20" viewBox="0 0 23 20">
        <path transform="translate(-487.000000, -3015.000000)" d="M495.27 3015C489.89 3018.12 487 3022.64 487 3028.88 487 3033.41 488.79 3035.9 491.91 3035.9 494.33 3035.9 496.05 3034.27 496.05 3031.61 496.05 3029.04 494.02 3027.64 491.91 3027.64 491.68 3027.64 491.45 3027.64 491.21 3027.71 491.21 3023.27 493.16 3020.62 497.14 3018.04L495.27 3015ZM509.07 3015C503.61 3018.12 500.73 3022.64 500.73 3028.88 500.73 3033.41 502.52 3035.9 505.64 3035.9 508.06 3035.9 509.78 3034.27 509.78 3031.61 509.78 3029.04 507.83 3027.64 505.64 3027.64 505.41 3027.64 505.17 3027.64 504.94 3027.71 504.94 3023.27 506.97 3020.62 510.87 3018.04L509.07 3015Z"/>
    </symbol>

    <symbol id="arrow-down" width="20" height="20" viewBox="0 0 20 20">
        <path d="M9.854 19.354l6-6c0.195-0.195 0.195-0.512 0-0.707s-0.512-0.195-0.707 0l-5.146 5.146v-16.293c0-0.276-0.224-0.5-0.5-0.5s-0.5 0.224-0.5 0.5v16.293l-5.146-5.146c-0.195-0.195-0.512-0.195-0.707 0-0.098 0.098-0.146 0.226-0.146 0.354s0.049 0.256 0.146 0.354l6 6c0.195 0.195 0.512 0.195 0.707 0z"></path>
    </symbol>

    <symbol id="user" width="20" height="20" viewBox="0 0 20 20">
        <path d="M9.5 11c-3.033 0-5.5-2.467-5.5-5.5s2.467-5.5 5.5-5.5 5.5 2.467 5.5 5.5-2.467 5.5-5.5 5.5zM9.5 1c-2.481 0-4.5 2.019-4.5 4.5s2.019 4.5 4.5 4.5c2.481 0 4.5-2.019 4.5-4.5s-2.019-4.5-4.5-4.5z"></path>
        <path d="M17.5 20h-16c-0.827 0-1.5-0.673-1.5-1.5 0-0.068 0.014-1.685 1.225-3.3 0.705-0.94 1.67-1.687 2.869-2.219 1.464-0.651 3.283-0.981 5.406-0.981s3.942 0.33 5.406 0.981c1.199 0.533 2.164 1.279 2.869 2.219 1.211 1.615 1.225 3.232 1.225 3.3 0 0.827-0.673 1.5-1.5 1.5zM9.5 13c-3.487 0-6.060 0.953-7.441 2.756-1.035 1.351-1.058 2.732-1.059 2.746 0 0.274 0.224 0.498 0.5 0.498h16c0.276 0 0.5-0.224 0.5-0.5-0-0.012-0.023-1.393-1.059-2.744-1.382-1.803-3.955-2.756-7.441-2.756z"></path>
    </symbol>

    <symbol id="envelope" width="20" height="20" viewBox="0 0 20 20">
        <path d="M17.5 6h-16c-0.827 0-1.5 0.673-1.5 1.5v9c0 0.827 0.673 1.5 1.5 1.5h16c0.827 0 1.5-0.673 1.5-1.5v-9c0-0.827-0.673-1.5-1.5-1.5zM17.5 7c0.030 0 0.058 0.003 0.087 0.008l-7.532 5.021c-0.29 0.193-0.819 0.193-1.109 0l-7.532-5.021c0.028-0.005 0.057-0.008 0.087-0.008h16zM17.5 17h-16c-0.276 0-0.5-0.224-0.5-0.5v-8.566l7.391 4.927c0.311 0.207 0.71 0.311 1.109 0.311s0.798-0.104 1.109-0.311l7.391-4.927v8.566c0 0.276-0.224 0.5-0.5 0.5z"></path>
    </symbol>

    <symbol id="pencil" width="20" height="20" viewBox="0 0 20 20">
        <path d="M19.104 0.896c-0.562-0.562-1.309-0.871-2.104-0.871s-1.542 0.309-2.104 0.871l-12.75 12.75c-0.052 0.052-0.091 0.114-0.116 0.183l-2 5.5c-0.066 0.183-0.021 0.387 0.116 0.524 0.095 0.095 0.223 0.146 0.354 0.146 0.057 0 0.115-0.010 0.171-0.030l5.5-2c0.069-0.025 0.131-0.065 0.183-0.116l12.75-12.75c0.562-0.562 0.871-1.309 0.871-2.104s-0.309-1.542-0.871-2.104zM5.725 17.068l-4.389 1.596 1.596-4.389 11.068-11.068 2.793 2.793-11.068 11.068zM18.396 4.396l-0.896 0.896-2.793-2.793 0.896-0.896c0.373-0.373 0.869-0.578 1.396-0.578s1.023 0.205 1.396 0.578c0.373 0.373 0.578 0.869 0.578 1.396s-0.205 1.023-0.578 1.396z"></path>
    </symbol>
</svg>
